<?xml version="1.0" encoding="UTF-8" standalone="no"?>
<!-- Created with Inkscape (http://www.inkscape.org/) -->

<svg
   xmlns:dc="http://purl.org/dc/elements/1.1/"
   xmlns:cc="http://creativecommons.org/ns#"
   xmlns:rdf="http://www.w3.org/1999/02/22-rdf-syntax-ns#"
   xmlns:svg="http://www.w3.org/2000/svg"
   xmlns="http://www.w3.org/2000/svg"
   xmlns:sodipodi="http://sodipodi.sourceforge.net/DTD/sodipodi-0.dtd"
   xmlns:inkscape="http://www.inkscape.org/namespaces/inkscape"
   id="svg2"
   version="1.1"
   inkscape:version="0.48.3.1 r9886"
   width="120"
   height="120"
   xml:space="preserve"
   sodipodi:docname="action_search_v11.svg"
   inkscape:export-filename="/media/truecrypt64/projs/android/library/android-filechooser/code/res/drawable-xhdpi/afc_ic_action_search_light.png"
   inkscape:export-xdpi="54"
   inkscape:export-ydpi="54"><metadata
     id="metadata8"><rdf:RDF><cc:Work
         rdf:about=""><dc:format>image/svg+xml</dc:format><dc:type
           rdf:resource="http://purl.org/dc/dcmitype/StillImage" /><dc:title></dc:title></cc:Work></rdf:RDF></metadata><defs
     id="defs6"><clipPath
       clipPathUnits="userSpaceOnUse"
       id="clipPath16"><path
         d="M 0,0 96,0 96,96 0,96 0,0 z"
         id="path18" /></clipPath><linearGradient
       x1="0"
       y1="0"
       x2="1"
       y2="0"
       gradientUnits="userSpaceOnUse"
       gradientTransform="matrix(0,96,96,0,48,0)"
       spreadMethod="pad"
       id="linearGradient24"><stop
         style="stop-opacity:1;stop-color:#272d33"
         offset="0"
         id="stop26" /><stop
         style="stop-opacity:1;stop-color:#000000"
         offset="1"
         id="stop28" /></linearGradient><clipPath
       clipPathUnits="userSpaceOnUse"
       id="clipPath38"><path
         d="M 0,96 96,96 96,0 0,0 0,96 z"
         id="path40" /></clipPath><clipPath
       clipPathUnits="userSpaceOnUse"
       id="clipPath50"><path
         d="M 0,96 96,96 96,0 0,0 0,96 z"
         id="path52" /></clipPath><clipPath
       clipPathUnits="userSpaceOnUse"
       id="clipPath62"><path
         d="M 0,96 96,96 96,0 0,0 0,96 z"
         id="path64" /></clipPath><clipPath
       clipPathUnits="userSpaceOnUse"
       id="clipPath74"><path
         d="M 0,96 96,96 96,0 0,0 0,96 z"
         id="path76" /></clipPath><clipPath
       clipPathUnits="userSpaceOnUse"
       id="clipPath90"><path
         d="M 0,96 96,96 96,0 0,0 0,96 z"
         id="path92" /></clipPath><clipPath
       clipPathUnits="userSpaceOnUse"
       id="clipPath100"><path
         d="M 0,96 96,96 96,0 0,0 0,96 z"
         id="path102" /></clipPath><clipPath
       clipPathUnits="userSpaceOnUse"
       id="clipPath110"><path
         d="M 0,96 96,96 96,0 0,0 0,96 z"
         id="path112" /></clipPath><clipPath
       clipPathUnits="userSpaceOnUse"
       id="clipPath122"><path
         d="M 0,96 96,96 96,0 0,0 0,96 z"
         id="path124" /></clipPath><clipPath
       clipPathUnits="userSpaceOnUse"
       id="clipPath138"><path
         d="M 0,96 96,96 96,0 0,0 0,96 z"
         id="path140" /></clipPath><clipPath
       clipPathUnits="userSpaceOnUse"
       id="clipPath148"><path
         d="M 0,96 96,96 96,0 0,0 0,96 z"
         id="path150" /></clipPath><clipPath
       clipPathUnits="userSpaceOnUse"
       id="clipPath176"><path
         d="M 0,96 96,96 96,0 0,0 0,96 z"
         id="path178" /></clipPath><clipPath
       clipPathUnits="userSpaceOnUse"
       id="clipPath200"><path
         d="M 0,96 96,96 96,0 0,0 0,96 z"
         id="path202" /></clipPath><clipPath
       clipPathUnits="userSpaceOnUse"
       id="clipPath216"><path
         d="M 0,96 96,96 96,0 0,0 0,96 z"
         id="path218" /></clipPath><clipPath
       clipPathUnits="userSpaceOnUse"
       id="clipPath232"><path
         d="M 0,96 96,96 96,0 0,0 0,96 z"
         id="path234" /></clipPath><clipPath
       clipPathUnits="userSpaceOnUse"
       id="clipPath252"><path
         d="M 0,96 96,96 96,0 0,0 0,96 z"
         id="path254" /></clipPath><clipPath
       clipPathUnits="userSpaceOnUse"
       id="clipPath268"><path
         d="M 0,96 96,96 96,0 0,0 0,96 z"
         id="path270" /></clipPath><clipPath
       clipPathUnits="userSpaceOnUse"
       id="clipPath278"><path
         d="M 0,96 96,96 96,0 0,0 0,96 z"
         id="path280" /></clipPath><clipPath
       clipPathUnits="userSpaceOnUse"
       id="clipPath302"><path
         d="M 0,96 96,96 96,0 0,0 0,96 z"
         id="path304" /></clipPath><clipPath
       clipPathUnits="userSpaceOnUse"
       id="clipPath324"><path
         d="M 0,96 96,96 96,0 0,0 0,96 z"
         id="path326" /></clipPath><clipPath
       clipPathUnits="userSpaceOnUse"
       id="clipPath344"><path
         d="M 0,96 96,96 96,0 0,0 0,96 z"
         id="path346" /></clipPath><clipPath
       clipPathUnits="userSpaceOnUse"
       id="clipPath356"><path
         d="M 0,96 96,96 96,0 0,0 0,96 z"
         id="path358" /></clipPath><clipPath
       clipPathUnits="userSpaceOnUse"
       id="clipPath380"><path
         d="M 0,96 96,96 96,0 0,0 0,96 z"
         id="path382" /></clipPath><clipPath
       clipPathUnits="userSpaceOnUse"
       id="clipPath392"><path
         d="M 0,96 96,96 96,0 0,0 0,96 z"
         id="path394" /></clipPath><clipPath
       clipPathUnits="userSpaceOnUse"
       id="clipPath404"><path
         d="M 0,96 96,96 96,0 0,0 0,96 z"
         id="path406" /></clipPath><clipPath
       clipPathUnits="userSpaceOnUse"
       id="clipPath416"><path
         d="M 0,96 96,96 96,0 0,0 0,96 z"
         id="path418" /></clipPath><clipPath
       clipPathUnits="userSpaceOnUse"
       id="clipPath428"><path
         d="M 0,96 96,96 96,0 0,0 0,96 z"
         id="path430" /></clipPath><clipPath
       clipPathUnits="userSpaceOnUse"
       id="clipPath440"><path
         d="M 0,96 96,96 96,0 0,0 0,96 z"
         id="path442" /></clipPath><clipPath
       clipPathUnits="userSpaceOnUse"
       id="clipPath456"><path
         d="M 0,96 96,96 96,0 0,0 0,96 z"
         id="path458" /></clipPath><clipPath
       clipPathUnits="userSpaceOnUse"
       id="clipPath468"><path
         d="M 0,96 96,96 96,0 0,0 0,96 z"
         id="path470" /></clipPath><clipPath
       clipPathUnits="userSpaceOnUse"
       id="clipPath492"><path
         d="M 0,96 96,96 96,0 0,0 0,96 z"
         id="path494" /></clipPath><clipPath
       clipPathUnits="userSpaceOnUse"
       id="clipPath504"><path
         d="M 0,96 96,96 96,0 0,0 0,96 z"
         id="path506" /></clipPath><clipPath
       clipPathUnits="userSpaceOnUse"
       id="clipPath516"><path
         d="M 0,96 96,96 96,0 0,0 0,96 z"
         id="path518" /></clipPath><clipPath
       clipPathUnits="userSpaceOnUse"
       id="clipPath532"><path
         d="M 0,96 96,96 96,0 0,0 0,96 z"
         id="path534" /></clipPath><clipPath
       clipPathUnits="userSpaceOnUse"
       id="clipPath544"><path
         d="M 0,96 96,96 96,0 0,0 0,96 z"
         id="path546" /></clipPath><clipPath
       clipPathUnits="userSpaceOnUse"
       id="clipPath560"><path
         d="M 0,96 96,96 96,0 0,0 0,96 z"
         id="path562" /></clipPath><clipPath
       clipPathUnits="userSpaceOnUse"
       id="clipPath572"><path
         d="M 0,96 96,96 96,0 0,0 0,96 z"
         id="path574" /></clipPath><clipPath
       clipPathUnits="userSpaceOnUse"
       id="clipPath584"><path
         d="M 0,96 96,96 96,0 0,0 0,96 z"
         id="path586" /></clipPath><clipPath
       clipPathUnits="userSpaceOnUse"
       id="clipPath600"><path
         d="M 0,96 96,96 96,0 0,0 0,96 z"
         id="path602" /></clipPath><clipPath
       clipPathUnits="userSpaceOnUse"
       id="clipPath612"><path
         d="M 0,96 96,96 96,0 0,0 0,96 z"
         id="path614" /></clipPath><clipPath
       clipPathUnits="userSpaceOnUse"
       id="clipPath626"><path
         d="M 0,96 96,96 96,0 0,0 0,96 z"
         id="path628" /></clipPath><clipPath
       clipPathUnits="userSpaceOnUse"
       id="clipPath638"><path
         d="M 0,96 96,96 96,0 0,0 0,96 z"
         id="path640" /></clipPath><clipPath
       clipPathUnits="userSpaceOnUse"
       id="clipPath650"><path
         d="M 0,96 96,96 96,0 0,0 0,96 z"
         id="path652" /></clipPath><clipPath
       clipPathUnits="userSpaceOnUse"
       id="clipPath662"><path
         d="M 0,96 96,96 96,0 0,0 0,96 z"
         id="path664" /></clipPath><clipPath
       clipPathUnits="userSpaceOnUse"
       id="clipPath714"><path
         d="M 0,96 96,96 96,0 0,0 0,96 z"
         id="path716" /></clipPath><clipPath
       clipPathUnits="userSpaceOnUse"
       id="clipPath730"><path
         d="M 0,96 96,96 96,0 0,0 0,96 z"
         id="path732" /></clipPath><clipPath
       clipPathUnits="userSpaceOnUse"
       id="clipPath778"><path
         d="M 0,96 96,96 96,0 0,0 0,96 z"
         id="path780" /></clipPath><clipPath
       clipPathUnits="userSpaceOnUse"
       id="clipPath794"><path
         d="M 0,96 96,96 96,0 0,0 0,96 z"
         id="path796" /></clipPath><clipPath
       clipPathUnits="userSpaceOnUse"
       id="clipPath810"><path
         d="M 0,96 96,96 96,0 0,0 0,96 z"
         id="path812" /></clipPath><clipPath
       clipPathUnits="userSpaceOnUse"
       id="clipPath832"><path
         d="M 0,96 96,96 96,0 0,0 0,96 z"
         id="path834" /></clipPath><clipPath
       clipPathUnits="userSpaceOnUse"
       id="clipPath848"><path
         d="M 0,96 96,96 96,0 0,0 0,96 z"
         id="path850" /></clipPath><clipPath
       clipPathUnits="userSpaceOnUse"
       id="clipPath904"><path
         d="M 0,96 96,96 96,0 0,0 0,96 z"
         id="path906" /></clipPath><clipPath
       clipPathUnits="userSpaceOnUse"
       id="clipPath920"><path
         d="M 0,96 96,96 96,0 0,0 0,96 z"
         id="path922" /></clipPath><clipPath
       clipPathUnits="userSpaceOnUse"
       id="clipPath930"><path
         d="M 0,96 96,96 96,0 0,0 0,96 z"
         id="path932" /></clipPath><clipPath
       clipPathUnits="userSpaceOnUse"
       id="clipPath942"><path
         d="M 0,96 96,96 96,0 0,0 0,96 z"
         id="path944" /></clipPath><clipPath
       clipPathUnits="userSpaceOnUse"
       id="clipPath958"><path
         d="M 0,96 96,96 96,0 0,0 0,96 z"
         id="path960" /></clipPath><clipPath
       clipPathUnits="userSpaceOnUse"
       id="clipPath974"><path
         d="M 0,96 96,96 96,0 0,0 0,96 z"
         id="path976" /></clipPath><clipPath
       clipPathUnits="userSpaceOnUse"
       id="clipPath990"><path
         d="M 0,96 96,96 96,0 0,0 0,96 z"
         id="path992" /></clipPath><clipPath
       clipPathUnits="userSpaceOnUse"
       id="clipPath1022"><path
         d="M 0,96 96,96 96,0 0,0 0,96 z"
         id="path1024" /></clipPath><clipPath
       clipPathUnits="userSpaceOnUse"
       id="clipPath1038"><path
         d="M 0,96 96,96 96,0 0,0 0,96 z"
         id="path1040" /></clipPath><clipPath
       clipPathUnits="userSpaceOnUse"
       id="clipPath1054"><path
         d="M 0,96 96,96 96,0 0,0 0,96 z"
         id="path1056" /></clipPath><clipPath
       clipPathUnits="userSpaceOnUse"
       id="clipPath1066"><path
         d="M 0,96 96,96 96,0 0,0 0,96 z"
         id="path1068" /></clipPath><clipPath
       clipPathUnits="userSpaceOnUse"
       id="clipPath1080"><path
         d="M 0,96 96,96 96,0 0,0 0,96 z"
         id="path1082" /></clipPath><clipPath
       clipPathUnits="userSpaceOnUse"
       id="clipPath1096"><path
         d="M 0,96 96,96 96,0 0,0 0,96 z"
         id="path1098" /></clipPath><clipPath
       clipPathUnits="userSpaceOnUse"
       id="clipPath1108"><path
         d="M 0,96 96,96 96,0 0,0 0,96 z"
         id="path1110" /></clipPath><clipPath
       clipPathUnits="userSpaceOnUse"
       id="clipPath1128"><path
         d="M 0,96 96,96 96,0 0,0 0,96 z"
         id="path1130" /></clipPath><clipPath
       clipPathUnits="userSpaceOnUse"
       id="clipPath1178"><path
         d="M 0,96 96,96 96,0 0,0 0,96 z"
         id="path1180" /></clipPath><clipPath
       clipPathUnits="userSpaceOnUse"
       id="clipPath1210"><path
         d="M 0,96 96,96 96,0 0,0 0,96 z"
         id="path1212" /></clipPath><clipPath
       clipPathUnits="userSpaceOnUse"
       id="clipPath1224"><path
         d="M 0,96 96,96 96,0 0,0 0,96 z"
         id="path1226" /></clipPath><clipPath
       clipPathUnits="userSpaceOnUse"
       id="clipPath1244"><path
         d="M 0,96 96,96 96,0 0,0 0,96 z"
         id="path1246" /></clipPath><clipPath
       clipPathUnits="userSpaceOnUse"
       id="clipPath1256"><path
         d="M 0,96 96,96 96,0 0,0 0,96 z"
         id="path1258" /></clipPath><clipPath
       clipPathUnits="userSpaceOnUse"
       id="clipPath1272"><path
         d="M 0,96 96,96 96,0 0,0 0,96 z"
         id="path1274" /></clipPath><clipPath
       clipPathUnits="userSpaceOnUse"
       id="clipPath1284"><path
         d="M 0,96 96,96 96,0 0,0 0,96 z"
         id="path1286" /></clipPath><clipPath
       clipPathUnits="userSpaceOnUse"
       id="clipPath1300"><path
         d="M 0,96 96,96 96,0 0,0 0,96 z"
         id="path1302" /></clipPath><clipPath
       clipPathUnits="userSpaceOnUse"
       id="clipPath1310"><path
         d="M 0,96 96,96 96,0 0,0 0,96 z"
         id="path1312" /></clipPath><clipPath
       clipPathUnits="userSpaceOnUse"
       id="clipPath1342"><path
         d="M 0,96 96,96 96,0 0,0 0,96 z"
         id="path1344" /></clipPath><clipPath
       clipPathUnits="userSpaceOnUse"
       id="clipPath1354"><path
         d="M 0,96 96,96 96,0 0,0 0,96 z"
         id="path1356" /></clipPath><clipPath
       clipPathUnits="userSpaceOnUse"
       id="clipPath1394"><path
         d="M 0,96 96,96 96,0 0,0 0,96 z"
         id="path1396" /></clipPath><clipPath
       clipPathUnits="userSpaceOnUse"
       id="clipPath1426"><path
         d="M 0,96 96,96 96,0 0,0 0,96 z"
         id="path1428" /></clipPath><clipPath
       clipPathUnits="userSpaceOnUse"
       id="clipPath1446"><path
         d="M 0,96 96,96 96,0 0,0 0,96 z"
         id="path1448" /></clipPath><clipPath
       clipPathUnits="userSpaceOnUse"
       id="clipPath1458"><path
         d="M 0,96 96,96 96,0 0,0 0,96 z"
         id="path1460" /></clipPath><clipPath
       clipPathUnits="userSpaceOnUse"
       id="clipPath1470"><path
         d="M 0,96 96,96 96,0 0,0 0,96 z"
         id="path1472" /></clipPath><clipPath
       clipPathUnits="userSpaceOnUse"
       id="clipPath1494"><path
         d="M 0,96 96,96 96,0 0,0 0,96 z"
         id="path1496" /></clipPath><clipPath
       clipPathUnits="userSpaceOnUse"
       id="clipPath1512"><path
         d="M 0,96 96,96 96,0 0,0 0,96 z"
         id="path1514" /></clipPath><clipPath
       clipPathUnits="userSpaceOnUse"
       id="clipPath1524"><path
         d="M 0,96 96,96 96,0 0,0 0,96 z"
         id="path1526" /></clipPath><clipPath
       clipPathUnits="userSpaceOnUse"
       id="clipPath1534"><path
         d="M 0,96 96,96 96,0 0,0 0,96 z"
         id="path1536" /></clipPath><clipPath
       clipPathUnits="userSpaceOnUse"
       id="clipPath1562"><path
         d="M 0,96 96,96 96,0 0,0 0,96 z"
         id="path1564" /></clipPath></defs><sodipodi:namedview
     pagecolor="#ffffff"
     bordercolor="#666666"
     borderopacity="1"
     objecttolerance="10"
     gridtolerance="10"
     guidetolerance="10"
     inkscape:pageopacity="0"
     inkscape:pageshadow="2"
     inkscape:window-width="1440"
     inkscape:window-height="849"
     id="namedview4"
     showgrid="false"
     inkscape:zoom="1.9666667"
     inkscape:cx="-102.71186"
     inkscape:cy="39.66102"
     inkscape:window-x="0"
     inkscape:window-y="27"
     inkscape:window-maximized="1"
     inkscape:current-layer="g4580" /><g
     id="g10"
     inkscape:groupmode="layer"
     inkscape:label="dark"
     transform="matrix(1.25,0,0,-1.25,0,120)"
     style="display:none"><g
       id="g1530"
       transform="translate(-5.4039756e-6,-2.9164288e-5)"><g
         id="g1532"
         clip-path="url(#clipPath1534)"><g
           id="g1538"
           transform="translate(25.9097,44.3535)"><path
             d="m 0,0 c -7.104,7.11 -7.104,18.632 0,25.736 7.109,7.109 18.622,7.103 25.735,0 C 32.838,18.632 32.838,7.114 25.735,0 18.622,-7.104 7.104,-7.104 0,0 M 53.584,-18.533 41.42,-6.365 c -1.07,1.068 -3.007,0.967 -4.95,-0.045 l -5.307,5.305 c 6.914,9.033 6.261,22.002 -2.003,30.268 -8.999,8.995 -23.587,8.995 -32.587,0 -8.995,-9 -8.995,-23.588 0,-32.588 8.268,-8.264 21.237,-8.917 30.269,-2.001 l 5.307,-5.303 c -1.012,-1.947 -1.115,-3.882 -0.047,-4.953 L 44.268,-27.85 c 1.537,-1.535 4.874,-0.691 7.441,1.883 2.571,2.568 3.415,5.899 1.875,7.434"
             style="fill:#333333;fill-opacity:1;fill-rule:nonzero;stroke:none"
             id="path1540"
             inkscape:connector-curvature="0" /></g></g></g></g><g
     transform="matrix(1.25,0,0,-1.25,0,120)"
     inkscape:label="light"
     inkscape:groupmode="layer"
     id="g4580"
     style="display:inline"><g
       transform="translate(-5.4039756e-6,-2.9164288e-5)"
       id="g4582"
       style="opacity:0.8;fill:#ffffff;fill-opacity:1"><g
         clip-path="url(#clipPath1534)"
         id="g4584"
         style="fill:#ffffff;fill-opacity:1"><g
           transform="translate(25.9097,44.3535)"
           id="g4586"
           style="fill:#ffffff;fill-opacity:1"><path
             inkscape:connector-curvature="0"
             id="path4588"
             style="fill:#ffffff;fill-opacity:1;fill-rule:nonzero;stroke:none"
             d="m 0,0 c -7.104,7.11 -7.104,18.632 0,25.736 7.109,7.109 18.622,7.103 25.735,0 C 32.838,18.632 32.838,7.114 25.735,0 18.622,-7.104 7.104,-7.104 0,0 M 53.584,-18.533 41.42,-6.365 c -1.07,1.068 -3.007,0.967 -4.95,-0.045 l -5.307,5.305 c 6.914,9.033 6.261,22.002 -2.003,30.268 -8.999,8.995 -23.587,8.995 -32.587,0 -8.995,-9 -8.995,-23.588 0,-32.588 8.268,-8.264 21.237,-8.917 30.269,-2.001 l 5.307,-5.303 c -1.012,-1.947 -1.115,-3.882 -0.047,-4.953 L 44.268,-27.85 c 1.537,-1.535 4.874,-0.691 7.441,1.883 2.571,2.568 3.415,5.899 1.875,7.434" /></g></g></g></g><g
     style="display:none"
     id="g7294"
     inkscape:groupmode="layer"
     inkscape:label="settings (light)"
     transform="matrix(1.25,0,0,-1.25,0,120)"><g
       style="fill:#ffffff;fill-opacity:1"
       id="g7296"
       transform="translate(-5.4039756e-6,-2.9164288e-5)"><g
         style="fill:#ffffff;fill-opacity:1"
         id="g7298"
         clip-path="url(#clipPath1534)"><g
           style="fill:#ffffff;fill-opacity:1"
           id="g7300"
           transform="translate(25.9097,44.3535)"><path
             d="m 0,0 c -7.104,7.11 -7.104,18.632 0,25.736 7.109,7.109 18.622,7.103 25.735,0 C 32.838,18.632 32.838,7.114 25.735,0 18.622,-7.104 7.104,-7.104 0,0 M 53.584,-18.533 41.42,-6.365 c -1.07,1.068 -3.007,0.967 -4.95,-0.045 l -5.307,5.305 c 6.914,9.033 6.261,22.002 -2.003,30.268 -8.999,8.995 -23.587,8.995 -32.587,0 -8.995,-9 -8.995,-23.588 0,-32.588 8.268,-8.264 21.237,-8.917 30.269,-2.001 l 5.307,-5.303 c -1.012,-1.947 -1.115,-3.882 -0.047,-4.953 L 44.268,-27.85 c 1.537,-1.535 4.874,-0.691 7.441,1.883 2.571,2.568 3.415,5.899 1.875,7.434"
             style="fill:#ffffff;fill-opacity:1;fill-rule:nonzero;stroke:none"
             id="path7302"
             inkscape:connector-curvature="0" /></g></g></g></g><g
     style="display:none"
     id="g3573"
     inkscape:groupmode="layer"
     inkscape:label="symbol (light)"
     transform="matrix(1.25,0,0,-1.25,0,120)"><g
       style="fill:#ffffff;fill-opacity:1;stroke:#000000;stroke-opacity:0.58823529"
       id="g3575"
       transform="translate(-5.4039756e-6,-2.9164288e-5)"><g
         style="fill:#ffffff;fill-opacity:1;stroke:#000000;stroke-opacity:0.58823529"
         id="g3577"
         clip-path="url(#clipPath1534)"><g
           style="fill:#ffffff;fill-opacity:1;stroke:#000000;stroke-opacity:0.58823529"
           id="g3579"
           transform="translate(25.9097,44.3535)"><path
             d="m 0,0 c -7.104,7.11 -7.104,18.632 0,25.736 7.109,7.109 18.622,7.103 25.735,0 C 32.838,18.632 32.838,7.114 25.735,0 18.622,-7.104 7.104,-7.104 0,0 M 53.584,-18.533 41.42,-6.365 c -1.07,1.068 -3.007,0.967 -4.95,-0.045 l -5.307,5.305 c 6.914,9.033 6.261,22.002 -2.003,30.268 -8.999,8.995 -23.587,8.995 -32.587,0 -8.995,-9 -8.995,-23.588 0,-32.588 8.268,-8.264 21.237,-8.917 30.269,-2.001 l 5.307,-5.303 c -1.012,-1.947 -1.115,-3.882 -0.047,-4.953 L 44.268,-27.85 c 1.537,-1.535 4.874,-0.691 7.441,1.883 2.571,2.568 3.415,5.899 1.875,7.434"
             style="fill:#ffffff;fill-opacity:1;fill-rule:nonzero;stroke:#000000;stroke-opacity:0.58823529"
             id="path3581"
             inkscape:connector-curvature="0" /></g></g></g></g></svg>